# xmcd
#
# Track frame offsets:
#        187
#        23405
#        43255
#        64380
#        78382
#        104800
#        124195
#        135627
#        160977
#        184080
#        198562
#        216277
#        235690
#        250190
#        257610
#        276900
#
# Disc length: 4058 seconds
#
# Revision: 2
# Processed by: cddbd v1.5.1PL0 Copyright (c) Steve Scherf et al.
# Submitted via: ExactAudioCopy v0.95a3
#
DISCID=ed0fd810
DTITLE=Kreator - Scenarios Of Violence
DYEAR=1900
DGENRE=
TTITLE0=Suicide In The Swamps
TTITLE1=Renewal
TTITLE2=Extreme Aggressions
TTITLE3=Brainseed
TTITLE4=Terror Zone
TTITLE5=Rippin Corpse
TTITLE6=Tormentor
TTITLE7=Some Pain Will Last
TTITLE8=Toxic Trace
TTITLE9=People of The Lie
TTITLE10=Depression Unrest
TTITLE11=Coma Of Souls
TTITLE12=Europe After The Rain
TTITLE13=Limits Of Liberty
TTITLE14=Terrible Certainty
TTITLE15=Karmic Wheel
EXTD=
EXTT0=
EXTT1=
EXTT2=
EXTT3=
EXTT4=
EXTT5=
EXTT6=
EXTT7=
EXTT8=
EXTT9=
EXTT10=
EXTT11=
EXTT12=
EXTT13=
EXTT14=
EXTT15=
PLAYORDER=
